<?xml version="1.0" encoding="UTF-8"?>
<svg id="_レイヤー_1" data-name="レイヤー_1" xmlns="http://www.w3.org/2000/svg" version="1.1" viewBox="0 0 436.06 377.21">
  <!-- Generator: Adobe Illustrator 29.0.1, SVG Export Plug-In . SVG Version: 2.1.0 Build 192)  -->
  <defs>
    <style>
      .st0 {
        fill: none;
        stroke: #fff;
        stroke-miterlimit: 10;
        stroke-width: 6px;
      }
    </style>
  </defs>
  <path class="st0" d="M418.42,4.2h-219.37c-5.6,0-10.14,4.61-10.14,10.3v128.95h64.91c5.6,0,10.14,4.61,10.14,10.3v10.92h99.35l-.03,42.12c0,10.17,13.08,14.02,18.42,5.42l41.54-66.83v-.02l4.2-4.35c.69-1.39,1.11-2.99,1.11-4.69V14.51c0-5.69-4.54-10.3-10.14-10.3Z"/>
  <path class="st0" d="M237.01,160.25H17.65c-5.6,0-10.15,4.61-10.15,10.31v121.81c0,1.7.41,3.3,1.12,4.7l4.19,4.34s0,.01.01.01l41.54,66.83c5.34,8.6,18.43,4.75,18.43-5.43l-.04-42.12h164.27c5.6,0,10.14-4.61,10.14-10.31v-139.85c0-5.69-4.54-10.31-10.14-10.31Z"/>
</svg>