<?xml version="1.0" encoding="UTF-8"?>
<svg id="_レイヤー_1" data-name="レイヤー_1" xmlns="http://www.w3.org/2000/svg" version="1.1" viewBox="0 0 353.06 377.21">
  <!-- Generator: Adobe Illustrator 29.0.1, SVG Export Plug-In . SVG Version: 2.1.0 Build 192)  -->
  <defs>
    <style>
      .st0 {
        fill: #fff;
      }
    </style>
  </defs>
  <path class="st0" d="M80.49,268.71c0-.16-.04-.3-.05-.46,0-.15.05-.3.05-.46v-117.08c0-5.01-4.06-9.07-9.07-9.07-8.97,0-17.37,1.28-25.03,3.65,6.82-71.33,63.97-127.18,133.22-127.18s127.73,57.22,133.4,129.77c-9.46-4.04-20.29-6.24-32.11-6.24-5.01,0-9.07,4.06-9.07,9.07,0,.16.04.3.05.46,0,.15-.05.3-.05.46v117.08c0,5.01,4.06,9.07,9.07,9.07,19.69,0,36.6-6.09,49.06-16.64,0,0,0,0,0,0-1.87,14.08-7.41,28.69-16.23,42.25-12.87,19.8-30.02,30.89-53.63,34.52-2.61-15.95-16.5-28.15-33.16-28.15-18.53,0-33.6,15.08-33.6,33.61s15.06,33.61,33.6,33.61c13.88,0,25.83-8.46,30.95-20.49,31.16-3.48,54.43-17.66,71.06-43.2,15.97-24.5,22.74-52.4,18.77-76.9v-.02s0-.02,0-.02c3.2-8.04,4.93-16.99,4.93-26.66,0-20.53-7.76-37.88-20.99-49.93,0-.05.01-.1.01-.15C331.66,71.59,263.45-.04,179.61-.04S30.36,68.69,27.65,154.25C10.2,166.18-.32,185.79-.32,209.71c0,40.08,29.5,68.07,71.73,68.07,5.01,0,9.07-4.06,9.07-9.07Z"/>
</svg>