<?xml version="1.0" encoding="UTF-8"?>
<svg id="_レイヤー_1" data-name="レイヤー_1" xmlns="http://www.w3.org/2000/svg" version="1.1" viewBox="0 0 436.06 377.21">
  <!-- Generator: Adobe Illustrator 29.0.1, SVG Export Plug-In . SVG Version: 2.1.0 Build 192)  -->
  <defs>
    <style>
      .st0 {
        fill: #fff;
      }
    </style>
  </defs>
  <path class="st0" d="M430.61,139.41c-3.99,10.81-10.08,21.23-18.14,31l-69.91,90.85c-2.02,2.62-5.12,4.09-8.32,4.09-1.13,0-2.27-.19-3.38-.57-4.26-1.45-7.12-5.46-7.12-9.95l.06-40.4c-11.24.44-23.16-.17-35.15-1.76-.44-6.47-1.49-12.96-3.17-19.38-9.01-34.5-35.66-64.03-73.08-81-14.26-6.47-29.76-10.92-45.78-13.23,3.19-35.09,27.76-67.22,67.52-85.24,63.1-28.67,144.4-11.26,181.17,38.79,21.52,29.32,26.38,56.89,15.31,86.81Z"/>
  <path class="st0" d="M264.97,203.29c-7.89-30.19-31.57-56.18-64.95-71.32-63.14-28.65-144.42-11.24-181.18,38.79-24.71,33.64-24.74,75.48-.08,109.2l.53.71.02.02c3.11,4.18,6.59,8.19,10.36,11.95l.59.69c.15.17.3.34.46.51l78.48,80.23c2.01,2.06,4.74,3.16,7.51,3.16,1.34,0,2.69-.26,3.97-.78,3.95-1.62,6.53-5.47,6.53-9.74l-.07-34.09c2.36.1,4.71.16,7.05.16,46.96,0,90.78-19.69,115.08-52.74,17.01-23.15,22.58-50.4,15.7-76.74Z"/>
</svg>