<?xml version="1.0" encoding="UTF-8"?>
<svg id="_レイヤー_1" data-name="レイヤー_1" xmlns="http://www.w3.org/2000/svg" version="1.1" viewBox="0 0 436.06 377.21">
  <!-- Generator: Adobe Illustrator 29.0.1, SVG Export Plug-In . SVG Version: 2.1.0 Build 192)  -->
  <defs>
    <style>
      .st0 {
        fill: none;
        stroke: #fff;
        stroke-miterlimit: 10;
        stroke-width: 12px;
      }
    </style>
  </defs>
  <path class="st0" d="M415.25,9.19h-214.07c-5.47,0-9.9,4.5-9.9,10.06v125.84h63.35c5.47,0,9.9,4.5,9.9,10.06v10.66h96.95l-.03,41.11c0,9.92,12.76,13.68,17.98,5.29l40.54-65.22v-.02l4.1-4.25c.68-1.35,1.09-2.91,1.09-4.58V19.24c0-5.55-4.43-10.06-9.9-10.06Z"/>
  <path class="st0" d="M238.22,161.47H24.15c-5.47,0-9.9,4.5-9.9,10.06v118.88c0,1.66.4,3.22,1.09,4.59l4.08,4.24s0,.01.01.01l40.53,65.22c5.22,8.39,17.99,4.63,17.98-5.29l-.04-41.1h160.31c5.47,0,9.9-4.5,9.9-10.06v-136.48c0-5.55-4.43-10.06-9.9-10.06Z"/>
</svg>