<?xml version="1.0" encoding="UTF-8"?>
<svg id="_レイヤー_1" data-name="レイヤー_1" xmlns="http://www.w3.org/2000/svg" version="1.1" viewBox="0 0 1014 1014">
  <!-- Generator: Adobe Illustrator 29.0.1, SVG Export Plug-In . SVG Version: 2.1.0 Build 192)  -->
  <defs>
    <style>
      .st0 {
        fill: #fff;
      }
    </style>
  </defs>
  <path class="st0" d="M327.64,599.43c2.77,4.17,6.67,7.81,11.69,10.9,2.44,1.5,3.33,4.5,1.99,6.69-.04.07-.09.14-.14.21-.16.2-.6.46-1.32.78-.89.38-1.88.48-2.84.29-115.21-23.28-137.85-120.78-127.48-223.91,10.59-105.07,43.99-202.38,100.19-291.93C347.49,42.28,408.47-4.03,481.33,6.04c3,.39,10.43,3.1,22.3,8.12,1.72.73,3.65.92,5.53.54,48.87-9.58,91.29,1.24,127.28,32.47,26.63,23.15,49.71,52.93,69.24,89.34,27.77,51.8,50.53,108.87,68.26,171.2,30.27,106.45,44.16,290.8-108.07,313.05-1.42.19-2.72-.81-2.91-2.23-.07-.49.01-.99.22-1.44l6.75-14.57c.33-.77-.03-1.66-.8-1.99-.24-.1-.51-.14-.77-.11-12.58,1.7-20.88,2.72-24.89,3.08-6.55.55-10.95-.9-13.2-4.35-.69-.97-2.03-1.19-3-.5-.69.49-1.02,1.34-.86,2.17,13.89,57.02,55.35,89.29,108.56,105.72,44.4,13.76,75.29,22.31,92.66,25.67,32.27,6.26,58.19,12.47,77.75,18.63,57.46,18.14,84.2,64.69,92.76,121.51,7.04,46.52,11.62,89.53,13.74,129.04.1,1.41-.16,2.82-.73,4.11-3.91,8.64-9.13,12.96-15.65,12.96-290.98.13-617.43.23-979.35.29-5.48,0-10.14-3.21-13.99-9.63-.77-1.28-1.14-2.76-1.08-4.25,1.7-45.61,6.62-91.07,14.77-136.38,10.61-58.73,41.32-103.76,100.98-119.22,51.54-13.3,116.23-25.67,173.2-46.75,47.87-17.75,80.63-45.43,96.04-93.98.28-.9-.19-1.86-1.07-2.15-.27-.09-.56-.11-.84-.05-19.51,3.72-39.95-4.94-54.57-9.49-.9-.3-1.87.18-2.17,1.08-.17.51-.09,1.07.21,1.52Z"/>
</svg>