<?xml version="1.0" encoding="UTF-8"?>
<svg id="_レイヤー_1" data-name="レイヤー_1" xmlns="http://www.w3.org/2000/svg" version="1.1" viewBox="0 0 200 200">
  <!-- Generator: Adobe Illustrator 29.0.1, SVG Export Plug-In . SVG Version: 2.1.0 Build 192)  -->
  <defs>
    <style>
      .st0 {
        fill: #fff;
      }
    </style>
  </defs>
  <path class="st0" d="M99.52-.23C44.3-.23-.48,44.54-.48,99.77s44.78,100,100,100,100-44.77,100-100S154.75-.23,99.52-.23ZM99.52,33.54c15.17,0,27.44,12.28,27.44,27.44s-12.28,27.44-27.44,27.44-27.44-12.29-27.44-27.44,12.29-27.44,27.44-27.44ZM141.9,153.94c-7.59,4.04-20.92,8.62-42.38,8.62s-34.78-4.58-42.38-8.62c-5.34-2.86-8.38-8.73-7.62-14.73,1.34-10.64,4-19.44,8.43-27,5.89-10.06,11.5-15.06,20.79-17.98,2.7-.84,5.17-.26,7.53,3.98l13.24,20.07,13.26-20.07c2.37-4.23,4.82-4.82,7.53-3.98,9.29,2.92,14.9,7.92,20.79,17.98,4.42,7.56,7.08,16.36,8.42,27,.77,6-2.28,11.88-7.62,14.73Z"/>
</svg>