<svg id="グループ_57" data-name="グループ 57" xmlns="http://www.w3.org/2000/svg" width="324.261" height="67.089" viewBox="0 0 324.261 67.089">
  <path id="パス_38" data-name="パス 38" d="M92.862,768.7l12.6-64.337L126,750.875l21.278-46.509L158.595,768.7h-9.263l-5.775-36.122-17.712,38.874-17.209-38.912L102.2,768.7Z" transform="translate(-92.862 -704.366)" fill="#f2f2f2"/>
  <path id="パス_39" data-name="パス 39" d="M311.633,713.032v36.044q0,7.713,2.519,11.279a13.476,13.476,0,0,0,21.2,0q2.519-3.45,2.519-11.279V713.032H346.9v38.525q0,9.457-5.891,15.58a22.787,22.787,0,0,1-32.518,0q-5.892-6.123-5.891-15.58V713.032Z" transform="translate(-193.796 -708.536)" fill="#f2f2f2"/>
  <path id="パス_40" data-name="パス 40" d="M501.3,721.52v51.354h-9.03V721.52H478.509v-8.488h36.51v8.488Z" transform="translate(-278.447 -708.536)" fill="#f2f2f2"/>
  <path id="パス_41" data-name="パス 41" d="M644.589,747.022l-19.534-33.99h10.387l13.682,23.913,13.72-23.913h10.387l-19.611,33.99v25.851h-9.031Z" transform="translate(-348.969 -708.536)" fill="#f2f2f2"/>
</svg>
